<svg xmlns="http://www.w3.org/2000/svg" width="1000" height="1000" viewBox="0 0 1000 1000" version="1.1"><path d="M 268.359 96.041 C 267.786 96.614, 261.830 97.359, 255.122 97.696 C 248.415 98.033, 242.692 98.689, 242.405 99.154 C 242.117 99.620, 240.244 100, 238.241 100 C 235.985 100, 234.961 100.353, 235.550 100.929 C 236.135 101.500, 239.574 101.415, 244.500 100.705 C 254.856 99.215, 301.144 99.215, 311.500 100.705 C 316.426 101.415, 319.865 101.500, 320.450 100.929 C 321.038 100.354, 319.630 100, 316.759 100 C 314.206 100, 311.883 99.620, 311.596 99.155 C 311.308 98.690, 306.023 98.021, 299.849 97.668 C 293.676 97.314, 288.170 96.570, 287.613 96.013 C 286.277 94.677, 269.698 94.702, 268.359 96.041 M 725.802 96.051 C 724.869 96.595, 719.131 97.325, 713.052 97.673 C 706.974 98.021, 702 98.687, 702 99.153 C 702 99.619, 699.885 100, 697.300 100 C 694.361 100, 692.956 100.352, 693.550 100.939 C 694.143 101.526, 697.508 101.432, 702.500 100.689 C 712.907 99.142, 759.111 99.154, 769 100.706 C 773.693 101.443, 776.856 101.531, 777.450 100.942 C 778.046 100.351, 777.020 100, 774.700 100 C 772.665 100, 771 99.619, 771 99.153 C 771 98.687, 765.613 98.034, 759.029 97.703 C 752.445 97.372, 746.175 96.629, 745.095 96.051 C 742.621 94.727, 728.073 94.727, 725.802 96.051 M 231 101 C 231 101.550, 229.785 102, 228.300 102 C 226.335 102, 225.900 102.300, 226.701 103.101 C 228.183 104.583, 234 103.244, 234 101.421 C 234 100.639, 233.325 100, 232.500 100 C 231.675 100, 231 100.450, 231 101 M 322 101.421 C 322 103.244, 327.817 104.583, 329.299 103.101 C 330.100 102.300, 329.665 102, 327.700 102 C 326.215 102, 325 101.550, 325 101 C 325 100.450, 324.325 100, 323.500 100 C 322.675 100, 322 100.639, 322 101.421 M 688.533 100.947 C 688.175 101.526, 687.009 102, 685.941 102 C 684.873 102, 684 102.450, 684 103 C 684 104.126, 686.376 104.274, 689.791 103.359 C 691.051 103.022, 691.923 102.268, 691.728 101.685 C 691.220 100.159, 689.295 99.714, 688.533 100.947 M 780 101.383 C 780 102.144, 781.013 103.038, 782.250 103.370 C 785.527 104.248, 787 104.133, 787 103 C 787 102.450, 786.100 102, 785 102 C 783.900 102, 783 101.550, 783 101 C 783 100.450, 782.325 100, 781.500 100 C 780.675 100, 780 100.623, 780 101.383 M 218.732 104 C 217.107 105.897, 217.115 106, 218.887 106 C 220.966 106, 223.349 103.683, 222.325 102.658 C 221.271 101.604, 220.554 101.872, 218.732 104 M 333.142 103.500 C 333.423 105.002, 334.385 105.544, 337.008 105.675 C 338.929 105.772, 339.600 105.613, 338.500 105.322 C 337.400 105.031, 335.660 104.052, 334.634 103.147 C 332.882 101.601, 332.791 101.623, 333.142 103.500 M 679.141 103.330 C 678.433 104.183, 676.875 105.071, 675.677 105.304 C 673.726 105.684, 673.759 105.740, 676 105.849 C 679.079 105.997, 681.381 104.644, 680.835 103.006 C 680.540 102.119, 680.072 102.208, 679.141 103.330 M 791 103.393 C 791 104.852, 793.078 106, 795.717 106 C 796.791 106, 796.486 105.383, 794.727 104 C 791.721 101.635, 791 101.518, 791 103.393 M 212.541 105.933 C 212.179 106.520, 210.810 107, 209.500 107 C 208.190 107, 206.840 107.450, 206.500 108 C 206.160 108.550, 204.319 109, 202.410 109 C 200.246 109, 198.720 109.565, 198.362 110.500 C 198.029 111.367, 196.534 112, 194.822 112 C 193.191 112, 191.211 112.646, 190.421 113.436 C 188.454 115.403, 190.252 116.279, 192.603 114.500 C 193.646 113.710, 195.711 113.049, 197.191 113.032 C 198.671 113.014, 200.121 112.613, 200.414 112.139 C 200.706 111.666, 203.643 110.522, 206.940 109.597 C 212.529 108.029, 214.887 106.553, 213.700 105.367 C 213.425 105.092, 212.904 105.347, 212.541 105.933 M 341.549 105.920 C 341.178 106.522, 341.464 107.223, 342.187 107.478 C 342.909 107.733, 346.786 109.109, 350.803 110.537 C 354.820 111.964, 358.645 112.912, 359.303 112.645 C 360.002 112.360, 359.823 112.125, 358.872 112.079 C 357.977 112.036, 356.685 111.325, 356 110.500 C 355.315 109.675, 353.460 109, 351.878 109 C 350.295 109, 349 108.550, 349 108 C 349 107.450, 347.965 107, 346.700 107 C 345.435 107, 343.911 106.511, 343.313 105.913 C 342.530 105.130, 342.036 105.132, 341.549 105.920 M 670.510 105.984 C 670.165 106.543, 668.810 107, 667.500 107 C 666.190 107, 664.840 107.450, 664.500 108 C 664.160 108.550, 662.839 109, 661.563 109 C 660.288 109, 658.685 109.675, 658 110.500 C 657.315 111.325, 655.653 112, 654.306 112 C 652.959 112, 651.182 112.675, 650.357 113.500 C 649.024 114.833, 649.025 115, 650.370 115 C 651.201 115, 652.160 114.550, 652.500 114 C 652.840 113.450, 654.126 113, 655.359 113 C 656.592 113, 658.028 112.626, 658.550 112.169 C 659.072 111.711, 661.525 110.763, 664 110.061 C 670.050 108.345, 673.549 106.457, 672.212 105.631 C 671.621 105.266, 670.856 105.425, 670.510 105.984 M 800.187 106 C 800.427 106.825, 803.415 108.444, 806.827 109.598 C 810.239 110.753, 813.323 111.990, 813.682 112.348 C 814.040 112.707, 815.518 113, 816.967 113 C 818.415 113, 820.092 113.492, 820.694 114.094 C 821.295 114.695, 822.623 114.973, 823.644 114.710 C 825.172 114.317, 825.102 114.211, 823.250 114.116 C 822.013 114.052, 821 113.550, 821 113 C 821 112.450, 820.068 112, 818.929 112 C 817.789 112, 816.182 111.325, 815.357 110.500 C 814.532 109.675, 812.566 109, 810.988 109 C 809.409 109, 807.840 108.550, 807.500 108 C 807.160 107.450, 805.874 107, 804.641 107 C 803.408 107, 801.804 106.438, 801.075 105.750 C 800.006 104.741, 799.834 104.790, 800.187 106 M 176.946 119.717 C 171.751 122.278, 167.350 124.740, 167.167 125.187 C 166.983 125.634, 166.026 126, 165.039 126 C 164.052 126, 162.685 126.675, 162 127.500 C 160.367 129.468, 161.024 129.393, 165.655 127.083 C 167.770 126.028, 170.175 124.897, 171 124.570 C 171.825 124.242, 174.966 122.630, 177.980 120.987 C 180.994 119.344, 184.005 118, 184.671 118 C 185.943 118, 187.489 116.155, 186.797 115.463 C 186.575 115.241, 182.142 117.155, 176.946 119.717 M 367 115.972 C 367 116.572, 367.788 117.332, 368.750 117.660 C 372.321 118.879, 381.057 123.283, 381.578 124.127 C 381.875 124.607, 382.991 125, 384.059 125 C 385.127 125, 386.004 125.338, 386.008 125.750 C 386.016 126.536, 390.765 129, 392.271 129 C 392.750 129, 392.468 128.325, 391.643 127.500 C 390.818 126.675, 389.462 126, 388.630 126 C 387.799 126, 386.871 125.600, 386.569 125.111 C 386.133 124.406, 379.082 120.709, 367.750 115.244 C 367.337 115.045, 367 115.373, 367 115.972 M 641.500 117.243 C 638.750 118.441, 636.350 119.777, 636.167 120.211 C 635.983 120.645, 634.971 121, 633.917 121 C 632.862 121, 632 121.401, 632 121.892 C 632 122.382, 630.875 123.066, 629.500 123.411 C 628.125 123.756, 627 124.480, 627 125.019 C 627 125.559, 626.293 126, 625.429 126 C 624.564 126, 623.182 126.675, 622.357 127.500 C 621.532 128.325, 621.068 129, 621.326 129 C 622.229 129, 645.441 116.959, 646.415 115.985 C 647.790 114.610, 647.195 114.763, 641.500 117.243 M 826.033 115.750 C 826.070 116.579, 843.299 125, 844.959 125 C 845.532 125, 846 125.398, 846 125.883 C 846 126.369, 846.788 127.045, 847.750 127.384 C 848.712 127.724, 850.063 128.264, 850.751 128.584 C 851.576 128.969, 851.794 128.628, 851.394 127.584 C 851.059 126.713, 849.961 126, 848.952 126 C 847.943 126, 846.860 125.582, 846.544 125.071 C 845.956 124.120, 827.997 115, 826.712 115 C 826.320 115, 826.015 115.338, 826.033 115.750 M 156.500 130.576 C 154.850 131.904, 152.938 132.992, 152.250 132.995 C 151.563 132.998, 151 133.450, 151 134 C 151 134.550, 150.348 135, 149.552 135 C 148.112 135, 143 139.169, 143 140.344 C 143 140.792, 156.038 133.081, 159.854 130.376 C 160.049 130.238, 160.049 129.684, 159.854 129.144 C 159.659 128.604, 158.150 129.249, 156.500 130.576 M 617.021 130.560 C 615.658 131.902, 614.083 133.002, 613.521 133.005 C 612.131 133.012, 606.228 137.919, 607.556 137.964 C 608.136 137.984, 610.161 136.836, 612.056 135.414 C 613.950 133.991, 616.513 132.427, 617.750 131.938 C 618.987 131.450, 620 130.363, 620 129.525 C 620 127.619, 620.015 127.614, 617.021 130.560 M 854 129.434 C 854 130.221, 854.900 131.151, 856 131.500 C 857.100 131.849, 858 132.554, 858 133.067 C 858 133.580, 858.443 134, 858.985 134 C 859.527 134, 862.164 135.350, 864.846 137 C 867.527 138.650, 870.121 139.998, 870.611 139.995 C 871.735 139.989, 865.811 135.085, 864.619 135.036 C 864.135 135.016, 861.548 133.426, 858.869 131.502 C 855.609 129.159, 854 128.476, 854 129.434 M 394 129.736 C 394 130.276, 396.468 132.356, 399.485 134.358 C 405.074 138.070, 408.353 139.210, 405.643 136.500 C 404.818 135.675, 403.661 135, 403.071 135 C 402.482 135, 402 134.602, 402 134.117 C 402 133.631, 401.212 132.972, 400.250 132.653 C 399.288 132.335, 397.488 131.327, 396.250 130.415 C 395.012 129.502, 394 129.197, 394 129.736 M 408 139.209 C 408 140.008, 409.238 141.300, 410.750 142.079 C 412.262 142.859, 413.725 143.781, 414 144.128 C 415.614 146.168, 429.505 156.828, 429.956 156.375 C 430.255 156.074, 429.375 154.928, 428 153.828 C 426.625 152.728, 424.375 150.845, 423 149.643 C 421.625 148.441, 418.700 146.120, 416.500 144.485 C 414.300 142.849, 412.275 141.284, 412 141.006 C 411.725 140.728, 410.712 139.882, 409.750 139.128 C 408.257 137.956, 408 137.968, 408 139.209 M 603.373 139.288 C 602.052 140.708, 599.967 142.420, 594.570 146.517 C 588.494 151.130, 584 155.276, 584 156.271 C 584 157.050, 592.346 150.632, 598.500 145.121 C 599.600 144.136, 601.737 142.529, 603.250 141.550 C 604.763 140.571, 606 139.372, 606 138.885 C 606 137.650, 604.713 137.847, 603.373 139.288 M 139.833 140.845 C 139.650 141.310, 137.025 143.448, 134 145.595 C 130.975 147.743, 127.600 150.409, 126.500 151.519 C 125.400 152.629, 122.759 154.831, 120.631 156.411 C 115.847 159.963, 95.017 181.127, 94.955 182.499 C 94.930 183.050, 92.914 185.525, 90.475 188 C 88.036 190.475, 86.473 192.647, 87.002 192.827 C 88.068 193.190, 91.953 189.120, 94.952 184.500 C 97.275 180.919, 123.436 155, 124.727 155 C 125.221 155, 126.937 153.632, 128.539 151.959 C 130.142 150.286, 133.601 147.539, 136.226 145.855 C 138.852 144.170, 141 142.163, 141 141.396 C 141 139.845, 140.349 139.538, 139.833 140.845 M 872 140.844 C 872 141.817, 873.579 143.200, 879.593 147.500 C 889.505 154.585, 917.862 181.178, 917.982 183.500 C 918.011 184.050, 919.939 186.543, 922.267 189.039 C 924.595 191.536, 927.106 194.737, 927.846 196.153 C 928.587 197.569, 930.274 199.894, 931.596 201.320 C 932.918 202.746, 934 204.189, 934 204.526 C 934 204.864, 935.283 207.021, 936.852 209.320 C 944.777 220.935, 954.905 241.796, 959.636 256.248 C 961.221 261.091, 963.062 264.997, 963.758 264.998 C 964.624 264.999, 964.743 264.454, 964.140 263.250 C 963.327 261.626, 961.284 256.079, 958.618 248.250 C 958.009 246.463, 957.171 245, 956.755 245 C 956.340 245, 956 243.902, 956 242.559 C 956 241.216, 955.550 239.840, 955 239.500 C 954.450 239.160, 954 238.041, 954 237.012 C 954 235.984, 953.325 234.468, 952.500 233.643 C 951.675 232.818, 951 231.436, 951 230.571 C 951 229.707, 950.602 229, 950.117 229 C 949.631 229, 948.971 228.213, 948.651 227.250 C 948.331 226.287, 946.252 222.350, 944.032 218.500 C 941.811 214.650, 939.718 210.713, 939.380 209.750 C 939.043 208.787, 938.369 208, 937.883 208 C 937.398 208, 937 207.325, 937 206.500 C 937 205.675, 936.550 205, 936 205 C 935.450 205, 934.991 204.438, 934.981 203.750 C 934.970 203.063, 933.395 200.705, 931.481 198.511 C 929.566 196.317, 928 194.227, 928 193.867 C 928 193.506, 926.763 191.884, 925.250 190.261 C 923.737 188.638, 921.600 186.079, 920.500 184.574 C 914.326 176.128, 898.944 160.636, 889.993 153.852 C 888.072 152.396, 885.600 150.367, 884.500 149.344 C 883.400 148.321, 881.375 146.715, 880 145.776 C 878.625 144.837, 876.263 143.115, 874.750 141.951 C 873.237 140.786, 872 140.288, 872 140.844 M 431 157.603 C 431 158.847, 444.798 172.536, 445.423 171.911 C 445.918 171.415, 438.570 163.339, 433.744 159.076 C 432.235 157.742, 431 157.079, 431 157.603 M 574.931 163.931 C 570.962 167.845, 567.993 171.327, 568.334 171.667 C 568.674 172.008, 572.140 169.023, 576.034 165.034 C 579.929 161.046, 582.898 157.565, 582.632 157.298 C 582.365 157.032, 578.900 160.017, 574.931 163.931 M 447.039 173.500 C 447.013 174.430, 457.306 187.880, 458.899 188.997 C 459.293 189.274, 462.515 193.775, 466.058 199 C 469.601 204.225, 472.725 208.725, 473 209 C 473.275 209.275, 474.287 211.075, 475.250 213 C 476.212 214.925, 479.238 220.550, 481.975 225.500 C 484.711 230.450, 487.227 235.175, 487.566 236 C 487.904 236.825, 488.591 238.512, 489.091 239.750 C 489.591 240.988, 490.510 243.238, 491.134 244.750 C 491.757 246.262, 492.699 248.625, 493.226 250 C 493.754 251.375, 494.818 253.774, 495.593 255.331 C 496.367 256.888, 497 259.004, 497 260.034 C 497 261.064, 497.398 262.940, 497.885 264.203 C 499.868 269.347, 501.997 277.894, 502.918 284.412 C 504.042 292.365, 506.251 295.674, 508.454 292.705 C 509.187 291.718, 510.086 288.793, 510.451 286.205 C 511.613 277.986, 515.183 263.999, 518.033 256.500 C 519.367 252.991, 523.157 243.619, 524.706 240 C 526.104 236.734, 526.945 234.693, 528.416 231 C 528.745 230.175, 530.145 227.700, 531.528 225.500 C 532.911 223.300, 534.337 220.825, 534.698 220 C 535.059 219.175, 536.436 216.763, 537.759 214.639 C 539.099 212.490, 539.598 210.967, 538.885 211.205 C 537.727 211.591, 534.558 216.306, 531.968 221.500 C 531.419 222.600, 530.110 224.850, 529.058 226.500 C 528.007 228.150, 527.113 230.287, 527.073 231.250 C 527.033 232.213, 526.550 233, 526 233 C 525.450 233, 525 233.845, 525 234.878 C 525 235.910, 524.325 237.315, 523.500 238 C 522.675 238.685, 522 240.288, 522 241.563 C 522 242.839, 521.550 244.160, 521 244.500 C 520.450 244.840, 520 245.991, 520 247.059 C 520 248.127, 519.550 249, 519 249 C 518.450 249, 518 250.039, 518 251.309 C 518 252.579, 517.339 254.491, 516.532 255.559 C 515.724 256.626, 515.049 258.711, 515.032 260.191 C 515.014 261.671, 514.550 263.160, 514 263.500 C 513.450 263.840, 513 265.415, 513 267 C 513 268.585, 512.603 270.128, 512.117 270.428 C 511.631 270.728, 510.924 273.455, 510.545 276.487 C 509.894 281.700, 509.703 282, 507.045 282 C 503.986 282, 503.039 280.192, 503.014 274.309 C 503.006 272.554, 502.550 270.840, 502 270.500 C 501.450 270.160, 500.986 268.671, 500.968 267.191 C 500.951 265.711, 500.276 263.626, 499.468 262.559 C 498.661 261.491, 498 259.605, 498 258.368 C 498 257.130, 497.550 255.840, 497 255.500 C 496.450 255.160, 496 254.093, 496 253.128 C 496 252.164, 494.875 249.042, 493.500 246.192 C 492.125 243.342, 491 240.333, 491 239.505 C 491 238.677, 490.550 238, 490 238 C 489.450 238, 489 237.127, 489 236.059 C 489 234.991, 488.550 233.840, 488 233.500 C 487.450 233.160, 487 232.057, 487 231.048 C 487 230.039, 486.325 228.955, 485.500 228.638 C 484.675 228.322, 484 227.331, 484 226.436 C 484 225.541, 483.194 223.614, 482.208 222.154 C 481.223 220.694, 479.545 217.813, 478.481 215.750 C 477.416 213.688, 476.198 212, 475.773 212 C 475.348 212, 475 211.100, 475 210 C 475 208.900, 474.663 207.991, 474.250 207.980 C 473.837 207.969, 472.169 205.719, 470.543 202.980 C 468.917 200.241, 467.230 198, 466.793 198 C 466.357 198, 466 197.433, 466 196.740 C 466 196.047, 464.944 194.340, 463.653 192.948 C 462.362 191.556, 461.124 189.936, 460.903 189.348 C 460.681 188.759, 458.404 185.853, 455.842 182.889 C 453.280 179.925, 450.257 176.375, 449.125 175 C 447.993 173.625, 447.054 172.950, 447.039 173.500 M 559.068 181.691 C 555.137 186.536, 551.038 191.551, 549.960 192.835 C 548.882 194.119, 548 195.769, 548 196.502 C 548 197.234, 547.620 197.983, 547.155 198.167 C 546.148 198.563, 539 208.435, 539 209.428 C 539 211.079, 541.384 208.335, 546.165 201.181 C 548.988 196.956, 554.881 189.087, 559.259 183.693 C 563.638 178.300, 566.994 173.661, 566.718 173.385 C 566.442 173.109, 563 176.847, 559.068 181.691 M 84.468 195.359 C 84.047 196.382, 82.644 198.360, 81.351 199.755 C 80.058 201.150, 79 202.696, 79 203.190 C 79 203.683, 77.875 205.301, 76.500 206.783 C 75.125 208.266, 74 210.047, 74 210.740 C 74 211.433, 73.550 212, 73 212 C 72.450 212, 72 212.873, 72 213.941 C 72 215.009, 71.578 216.142, 71.063 216.461 C 70.153 217.024, 69.404 218.324, 64.278 228.245 C 62.930 230.854, 61.416 233.243, 60.913 233.554 C 60.411 233.864, 60 235.190, 60 236.500 C 60 237.810, 59.550 239.160, 59 239.500 C 58.450 239.840, 58 240.936, 58 241.937 C 58 242.937, 57.325 244.315, 56.500 245 C 55.675 245.685, 55 247.096, 55 248.136 C 55 249.176, 54.550 250.921, 54 252.014 C 53.450 253.106, 52.550 254.894, 52 255.986 C 51.450 257.079, 51 259.014, 51 260.286 C 51 261.559, 50.438 263.196, 49.750 263.925 C 48.743 264.992, 48.780 265.165, 49.937 264.812 C 50.728 264.572, 51.773 263.053, 52.259 261.438 C 53.744 256.507, 59.033 242.819, 61.702 237 C 65.081 229.632, 65.136 229.524, 69.509 221.500 C 71.607 217.650, 73.959 213.262, 74.735 211.750 C 75.511 210.238, 76.491 209, 76.913 209 C 77.334 209, 78.230 207.791, 78.903 206.314 C 79.576 204.837, 81.486 201.912, 83.147 199.815 C 84.808 197.717, 85.957 195.438, 85.700 194.751 C 85.391 193.924, 84.973 194.130, 84.468 195.359 M 48.502 268.005 C 48.924 269.337, 48.612 270.212, 47.569 270.612 C 46.412 271.056, 46 272.630, 46 276.607 C 46 279.573, 45.550 282, 45 282 C 44.450 282, 44 284.009, 44 286.465 C 44 288.921, 43.229 293.083, 42.287 295.715 C 39.742 302.822, 39.742 352.178, 42.287 359.285 C 43.229 361.917, 44 366.529, 44 369.535 C 44 372.541, 44.450 375, 45 375 C 45.550 375, 46 376.988, 46 379.417 C 46 382.041, 46.503 384.001, 47.240 384.247 C 47.994 384.498, 48.361 386.029, 48.178 388.156 C 47.984 390.407, 48.433 392.115, 49.438 392.949 C 50.297 393.662, 51 395.321, 51 396.636 C 51 397.951, 51.450 399.921, 52 401.014 C 52.550 402.106, 53.450 403.894, 54 404.986 C 54.550 406.079, 55 407.824, 55 408.864 C 55 409.904, 55.675 411.315, 56.500 412 C 57.325 412.685, 58 414.540, 58 416.122 C 58 417.705, 58.450 419, 59 419 C 59.550 419, 60 419.809, 60 420.798 C 60 421.786, 61.575 425.671, 63.500 429.430 C 65.425 433.189, 67 437.057, 67 438.025 C 67 438.994, 67.704 440.056, 68.563 440.386 C 69.423 440.716, 69.869 441.403, 69.554 441.912 C 69.239 442.422, 69.661 443.518, 70.491 444.348 C 71.321 445.178, 72 446.288, 72 446.814 C 72 448.100, 74.005 451.838, 76.750 455.668 C 77.987 457.396, 79 459.302, 79 459.904 C 79 460.507, 79.450 461, 80 461 C 80.550 461, 81 461.914, 81 463.031 C 81 464.149, 81.598 465.292, 82.330 465.573 C 83.061 465.854, 84.270 467.640, 85.016 469.542 C 85.763 471.444, 86.637 473, 86.959 473 C 87.282 473, 88.393 474.575, 89.430 476.500 C 90.467 478.425, 91.694 480, 92.157 480 C 92.621 480, 93.010 480.563, 93.023 481.250 C 93.036 481.938, 95.736 486.098, 99.023 490.496 C 102.310 494.893, 105 498.746, 105 499.057 C 105 499.368, 105.801 500.495, 106.780 501.561 C 107.759 502.628, 109.888 505.300, 111.511 507.500 C 113.134 509.700, 115.371 512.406, 116.481 513.514 C 117.591 514.622, 119.834 517.322, 121.464 519.514 C 123.094 521.706, 124.894 523.989, 125.464 524.587 C 127.406 526.624, 140.691 541.488, 144.101 545.439 C 147.987 549.943, 187.271 589.295, 194.415 595.841 C 197.020 598.228, 199.385 599.948, 199.670 599.664 C 199.955 599.379, 195.550 594.726, 189.882 589.323 C 168.165 568.622, 144.309 544.179, 133.500 531.552 C 123.067 519.365, 115.302 509.875, 110.530 503.480 C 108.897 501.291, 107.187 499.050, 106.731 498.500 C 101.255 491.896, 85 467.537, 85 465.934 C 85 465.386, 84.325 464.678, 83.500 464.362 C 82.675 464.045, 82 463.214, 82 462.514 C 82 461.815, 80.537 458.812, 78.750 455.841 C 75.403 450.279, 65.542 430.590, 62.552 423.500 C 61.624 421.300, 60.475 418.600, 60 417.500 C 58.337 413.657, 53.105 398.475, 52.417 395.500 C 52.036 393.850, 51.390 392.050, 50.981 391.500 C 50.572 390.950, 49.987 388.925, 49.680 387 C 49.374 385.075, 48.405 380.350, 47.526 376.500 C 40.508 345.743, 40.400 312.666, 47.216 281.500 C 50.134 268.158, 50.389 266, 49.042 266 C 48.319 266, 48.111 266.774, 48.502 268.005 M 964.136 269.191 C 964.061 271.221, 964.450 273.160, 965 273.500 C 965.550 273.840, 966 275.637, 966 277.494 C 966 279.351, 966.460 282.081, 967.023 283.561 C 969.179 289.231, 971.298 310.045, 971.395 326.500 C 971.489 342.588, 970.147 357.964, 967.773 368 C 966.571 373.080, 965.176 380.562, 964.325 386.500 C 964.009 388.700, 963.132 391.388, 962.375 392.473 C 961.619 393.557, 961 395.100, 961 395.900 C 961 397.726, 955.448 413.533, 953.473 417.331 C 952.663 418.888, 952 420.731, 952 421.427 C 952 422.123, 950.262 426.249, 948.138 430.596 C 946.014 434.943, 943.298 440.525, 942.101 443 C 940.905 445.475, 938.572 449.750, 936.917 452.500 C 935.262 455.250, 933.247 458.850, 932.439 460.500 C 930.655 464.143, 930.033 465.120, 922.750 475.713 C 919.587 480.313, 917 484.368, 917 484.726 C 917 485.083, 914.975 487.953, 912.500 491.103 C 910.025 494.254, 908 497.119, 908 497.470 C 908 497.821, 906.652 499.547, 905.005 501.304 C 903.357 503.062, 902.007 504.768, 902.005 505.094 C 902.002 505.421, 900.834 506.996, 899.408 508.594 C 897.983 510.193, 895.621 513.080, 894.158 515.012 C 892.696 516.943, 890.150 520.055, 888.500 521.927 C 886.850 523.799, 882.148 529.194, 878.051 533.916 C 869.629 543.622, 814.367 599.086, 809 603.219 C 802.831 607.970, 789.480 620.795, 790.075 621.399 C 790.391 621.720, 792.905 619.844, 795.661 617.229 C 798.417 614.614, 803.973 609.555, 808.009 605.987 C 827.025 589.173, 865.409 550.881, 877.375 536.789 C 880.042 533.649, 884.649 528.494, 887.612 525.336 C 890.575 522.177, 893 519.235, 893 518.798 C 893 518.361, 894.800 516.093, 897 513.757 C 899.200 511.422, 901 509.203, 901 508.827 C 901 508.451, 901.571 507.548, 902.269 506.821 C 905.163 503.808, 916 488.975, 916 488.027 C 916 487.462, 916.348 487, 916.773 487 C 917.198 487, 918.393 485.425, 919.430 483.500 C 920.467 481.575, 921.694 480, 922.157 480 C 922.621 480, 923 479.498, 923 478.884 C 923 478.270, 924.575 475.622, 926.500 473 C 928.425 470.378, 930 467.730, 930 467.116 C 930 466.502, 930.441 466, 930.981 466 C 931.520 466, 932.244 464.875, 932.589 463.500 C 932.934 462.125, 933.618 461, 934.108 461 C 934.599 461, 935 460.100, 935 459 C 935 457.900, 935.450 457, 936 457 C 936.550 457, 937 456.325, 937 455.500 C 937 454.675, 937.450 454, 938 454 C 938.550 454, 939 453.086, 939 451.969 C 939 450.851, 939.675 449.678, 940.500 449.362 C 941.325 449.045, 942 447.934, 942 446.893 C 942 445.852, 942.450 445, 943 445 C 943.550 445, 944 443.923, 944 442.607 C 944 441.291, 944.675 439.955, 945.500 439.638 C 946.325 439.322, 947 438.416, 947 437.626 C 947 436.330, 948.730 432.403, 952.630 424.846 C 953.384 423.386, 954 421.473, 954 420.596 C 954 419.718, 954.450 419, 955 419 C 955.550 419, 956 417.869, 956 416.486 C 956 415.104, 956.404 413.191, 956.897 412.236 C 957.391 411.281, 958.562 408.475, 959.500 406 C 960.438 403.525, 961.609 400.719, 962.103 399.764 C 962.596 398.809, 963 397.148, 963 396.073 C 963 394.998, 963.450 393.840, 964 393.500 C 964.550 393.160, 965 390.932, 965 388.548 C 965 385.618, 965.486 384.028, 966.500 383.638 C 967.547 383.237, 968 381.603, 968 378.231 C 968 375.574, 968.410 372.973, 968.912 372.450 C 969.414 371.928, 970.070 369.025, 970.370 366 C 970.670 362.975, 971.388 355.627, 971.965 349.672 C 972.541 343.716, 973.460 338.008, 974.007 336.987 C 975.319 334.535, 975.288 318.688, 973.968 317.368 C 973.401 316.801, 972.657 311.745, 972.315 306.133 C 971.973 300.520, 971.312 295.693, 970.847 295.405 C 970.381 295.117, 970 292.235, 970 289 C 970 285.765, 969.550 282.840, 969 282.500 C 968.450 282.160, 968 279.714, 968 277.063 C 968 274.090, 967.449 271.787, 966.560 271.050 C 965.768 270.393, 964.929 268.875, 964.696 267.677 C 964.446 266.392, 964.217 267.012, 964.136 269.191 M 201 600.776 C 201 601.317, 202.912 603.426, 205.250 605.463 C 207.588 607.500, 212.537 612.072, 216.250 615.624 C 219.963 619.175, 223 621.575, 223 620.958 C 223 620.341, 219.738 616.793, 215.750 613.075 C 204.781 602.846, 201 599.693, 201 600.776 M 227 625.083 C 228.925 626.761, 233.453 630.815, 237.063 634.092 C 240.673 637.369, 244.723 640.812, 246.063 641.743 C 247.403 642.674, 250.510 645.409, 252.966 647.821 C 255.442 650.252, 257.605 651.686, 257.820 651.039 C 258.034 650.398, 257.529 649.339, 256.698 648.687 C 251.257 644.413, 240.253 634.938, 235.578 630.500 C 230.318 625.507, 225.830 622.001, 224.715 622.016 C 224.047 622.025, 225.075 623.405, 227 625.083 M 783.500 625.693 C 781.300 627.694, 776.906 631.732, 773.735 634.666 C 770.564 637.600, 767.725 640, 767.426 640 C 767.127 640, 764.845 641.913, 762.356 644.250 C 759.866 646.587, 757.192 648.860, 756.414 649.300 C 755.636 649.740, 755 650.553, 755 651.106 C 755 652.362, 757.807 650.422, 763.279 645.386 C 765.600 643.248, 769.075 640.304, 771 638.842 C 772.925 637.380, 777.408 633.443, 780.962 630.092 C 784.516 626.741, 787.779 624, 788.212 624 C 788.645 624, 789 623.550, 789 623 C 789 621.268, 787.624 621.942, 783.500 625.693 M 262 655.171 C 263.925 656.883, 267.386 660.020, 269.691 662.142 C 273.909 666.025, 275 666.657, 275 665.220 C 275 664.221, 260.493 651.990, 259.355 652.029 C 258.885 652.045, 260.075 653.459, 262 655.171 M 746.182 658.120 C 742.232 661.469, 739 664.668, 739 665.227 C 739 666.285, 740.375 665.351, 745.481 660.824 C 747.142 659.352, 749.831 657.008, 751.457 655.614 C 753.083 654.221, 754.178 652.844, 753.889 652.555 C 753.600 652.266, 750.131 654.770, 746.182 658.120 M 276 666.763 C 276 667.317, 277.012 668.444, 278.250 669.268 C 279.488 670.092, 282.734 672.890, 285.465 675.487 C 288.279 678.163, 290.601 679.696, 290.825 679.025 C 291.042 678.374, 290.157 677.099, 288.860 676.191 C 287.562 675.282, 284.925 673.169, 283 671.493 C 277.454 666.667, 276 665.684, 276 666.763 M 732.557 669.597 C 730.388 671.550, 727.313 674.241, 725.725 675.578 C 724.136 676.915, 722.989 678.466, 723.175 679.024 C 723.361 679.583, 726.015 677.635, 729.073 674.697 C 732.131 671.759, 735.390 669.064, 736.316 668.709 C 737.978 668.071, 738.705 665.978, 737.250 666.023 C 736.837 666.036, 734.725 667.644, 732.557 669.597 M 296.641 684.750 C 299.396 687.362, 303.191 690.705, 305.075 692.178 C 306.959 693.652, 309.673 695.902, 311.108 697.178 C 318.453 703.719, 326.466 710.630, 327.893 711.656 C 328.777 712.292, 332.198 715.337, 335.495 718.422 C 338.792 721.508, 341.633 723.600, 341.809 723.072 C 342.118 722.145, 337.715 717.790, 330.808 712.193 C 325.948 708.253, 323.351 706.027, 317.754 701 C 314.999 698.525, 311.752 695.825, 310.540 695 C 309.328 694.175, 306.348 691.637, 303.918 689.360 C 297.751 683.582, 293.351 680, 292.422 680 C 291.987 680, 293.886 682.138, 296.641 684.750 M 717.503 682.580 C 715.854 683.998, 712.398 687.099, 709.821 689.473 C 707.245 691.846, 704.717 693.948, 704.205 694.144 C 703.416 694.445, 697.120 699.865, 687.551 708.481 C 686.318 709.592, 684.179 711.400, 682.797 712.500 C 676.182 717.768, 670.841 723.022, 671.154 723.954 C 671.344 724.522, 674.472 722.177, 678.104 718.743 C 681.736 715.309, 686.444 711.150, 688.566 709.500 C 690.689 707.850, 694.331 704.687, 696.660 702.472 C 698.990 700.256, 702.602 697.106, 704.687 695.472 C 708.060 692.828, 710.348 690.847, 719.963 682.250 C 723.474 679.111, 721.179 679.419, 717.503 682.580 M 344 725.373 C 344 726.268, 344.411 727, 344.914 727 C 345.417 727, 347.351 728.462, 349.213 730.250 C 351.075 732.038, 356.401 736.875, 361.049 741 C 377.075 755.222, 412.537 790.070, 428.250 807.036 C 432.512 811.638, 436 814.901, 436 814.286 C 436 811.376, 386.705 761.922, 360.957 739 C 356.323 734.875, 350.612 729.755, 348.266 727.623 C 345.247 724.879, 344 724.221, 344 725.373 M 666.457 726.613 C 664.831 728.006, 659.707 732.601, 655.072 736.823 C 622.849 766.173, 575.921 813.255, 577.408 814.741 C 577.720 815.054, 579.894 813.108, 582.238 810.419 C 588.826 802.859, 635.558 756.411, 645.036 748 C 653.171 740.782, 656.323 737.925, 665.917 729.074 C 670.758 724.608, 671.212 722.540, 666.457 726.613 M 438.563 819.220 C 440.178 820.991, 442.177 823.129, 443.004 823.970 C 443.831 824.812, 446.215 827.626, 448.301 830.225 C 450.387 832.824, 452.635 835.524, 453.297 836.225 C 453.958 836.926, 455.826 839.300, 457.447 841.500 C 459.068 843.700, 460.663 845.725, 460.993 846 C 462.469 847.234, 478 870.024, 478 870.956 C 478 871.530, 478.398 872, 478.883 872 C 479.369 872, 480.037 872.788, 480.368 873.750 C 480.698 874.712, 482.108 877.300, 483.502 879.500 C 484.895 881.700, 486.449 884.469, 486.956 885.653 C 487.462 886.837, 488.354 888.101, 488.938 888.462 C 489.522 888.823, 490 889.991, 490 891.059 C 490 892.127, 490.450 893, 491 893 C 491.550 893, 492 893.900, 492 895 C 492 896.100, 492.450 897, 493 897 C 493.550 897, 494 897.845, 494 898.878 C 494 899.910, 494.675 901.315, 495.500 902 C 496.325 902.685, 497 904.090, 497 905.122 C 497 906.155, 497.450 907, 498 907 C 498.550 907, 499 908.125, 499 909.500 C 499 910.875, 499.450 912, 500 912 C 500.550 912, 501 913.778, 501 915.950 C 501 918.270, 501.573 920.231, 502.389 920.700 C 503.152 921.140, 504 922.400, 504.273 923.500 C 504.650 925.022, 504.796 924.839, 504.884 922.736 C 504.948 921.216, 504.586 919.191, 504.080 918.236 C 503.573 917.281, 501.903 913.350, 500.368 909.500 C 497.320 901.855, 487.549 882.400, 485.552 880 C 484.866 879.175, 484.025 877.712, 483.683 876.750 C 483.342 875.788, 482.599 875, 482.031 875 C 481.464 875, 481 874.277, 481 873.393 C 481 870.916, 460.560 842.151, 451.125 831.350 C 449.131 829.068, 445.475 824.683, 443 821.607 C 440.525 818.531, 437.853 816.011, 437.063 816.007 C 436.127 816.002, 436.650 817.123, 438.563 819.220 M 570.591 821.750 C 568.032 824.913, 565.125 828.400, 564.131 829.500 C 563.138 830.600, 560.622 833.750, 558.541 836.500 C 556.460 839.250, 554.448 841.725, 554.069 842 C 553.689 842.275, 551.311 845.425, 548.782 849 C 546.254 852.575, 542.107 858.425, 539.568 862 C 537.028 865.575, 534.389 869.625, 533.703 871 C 533.017 872.375, 530.839 875.975, 528.863 879 C 520.346 892.038, 508.848 917.674, 509.136 922.986 C 509.264 925.337, 509.300 925.354, 509.706 923.250 C 509.944 922.013, 510.558 921, 511.070 921 C 511.581 921, 512 919.511, 512 917.691 C 512 915.871, 512.661 913.509, 513.468 912.441 C 514.276 911.374, 514.951 909.712, 514.968 908.750 C 514.986 907.788, 515.450 907, 516 907 C 516.550 907, 517 906.127, 517 905.059 C 517 903.991, 517.450 902.840, 518 902.500 C 518.550 902.160, 519 900.994, 519 899.910 C 519 898.825, 519.675 897.678, 520.500 897.362 C 521.325 897.045, 522 895.961, 522 894.952 C 522 893.943, 522.450 892.840, 523 892.500 C 523.550 892.160, 524 891.009, 524 889.941 C 524 888.873, 524.367 888, 524.815 888 C 525.263 888, 526.385 886.538, 527.309 884.750 C 528.232 882.962, 529.553 880.611, 530.244 879.524 C 534.212 873.283, 538 866.892, 538 866.437 C 538 866.149, 539.125 864.699, 540.500 863.217 C 541.875 861.734, 543 859.953, 543 859.260 C 543 858.567, 543.450 858, 544 858 C 544.550 858, 545 857.325, 545 856.500 C 545 855.675, 545.337 854.997, 545.750 854.993 C 546.163 854.989, 547.588 853.389, 548.918 851.437 C 550.247 849.485, 552.602 846.450, 554.152 844.694 C 555.701 842.937, 556.975 841.158, 556.984 840.741 C 556.993 840.323, 558.405 838.523, 560.122 836.741 C 561.839 834.958, 563.975 832.375, 564.868 831 C 566.532 828.437, 570.757 823.475, 574.750 819.391 C 577.154 816.934, 577.532 816, 576.122 816 C 575.640 816, 573.151 818.587, 570.591 821.750 M 504 928 C 504 929.556, 504.667 930, 507 930 C 509.333 930, 510 929.556, 510 928 C 510 926.444, 509.333 926, 507 926 C 504.667 926, 504 926.444, 504 928" stroke="none" fill="#fc3939" fill-rule="evenodd"/><path d="M 252.859 99.475 C 251.618 100.715, 236.521 101.847, 235.253 100.795 C 234.341 100.038, 234 100.175, 234 101.298 C 234 103.234, 228.254 104.654, 226.701 103.101 C 225.394 101.794, 221.638 101.605, 222.430 102.887 C 223.451 104.538, 220.162 106.194, 217.168 105.537 C 215.075 105.077, 214.093 105.315, 213.684 106.381 C 213.371 107.197, 210.377 108.633, 207.030 109.572 C 203.684 110.511, 200.706 111.666, 200.414 112.139 C 200.121 112.613, 198.768 113, 197.406 113 C 196.044 113, 193.862 113.699, 192.557 114.554 C 190.980 115.588, 189.967 115.755, 189.534 115.054 C 188.564 113.485, 187 113.780, 187 115.531 C 187 116.374, 186.213 117.332, 185.250 117.660 C 183.595 118.225, 175.253 122.179, 172 123.939 C 166.181 127.089, 161.675 128.917, 160.905 128.441 C 160.407 128.134, 159.988 128.471, 159.974 129.191 C 159.943 130.742, 144.062 140.601, 142.250 140.193 C 141.563 140.039, 141 140.560, 141 141.352 C 141 142.144, 138.852 144.170, 136.226 145.855 C 133.601 147.539, 130.142 150.286, 128.539 151.959 C 126.937 153.632, 125.203 155, 124.686 155 C 123.333 155, 96.161 182.610, 92 188.212 C 90.075 190.804, 87.938 192.941, 87.250 192.962 C 86.563 192.983, 86 193.723, 86 194.606 C 86 195.489, 84.679 197.881, 83.063 199.920 C 81.448 201.959, 79.576 204.837, 78.903 206.314 C 78.230 207.791, 77.334 209, 76.913 209 C 76.491 209, 75.511 210.238, 74.735 211.750 C 73.959 213.262, 71.607 217.650, 69.509 221.500 C 62.049 235.187, 54.140 253.533, 52.521 260.905 C 52.094 262.848, 50.953 264.481, 49.656 265.004 C 48.470 265.482, 48.112 265.902, 48.859 265.937 C 50.414 266.009, 50.236 267.694, 47.216 281.500 C 40.400 312.666, 40.508 345.743, 47.526 376.500 C 48.405 380.350, 49.374 385.075, 49.680 387 C 49.987 388.925, 50.572 390.950, 50.981 391.500 C 51.390 392.050, 52.036 393.850, 52.417 395.500 C 53.189 398.839, 58.352 413.576, 60.652 419 C 61.468 420.925, 62.506 423.400, 62.960 424.500 C 65.087 429.658, 75.849 451.019, 78.750 455.841 C 80.537 458.812, 82 461.863, 82 462.621 C 82 463.380, 82.464 464, 83.031 464 C 83.599 464, 84.361 464.787, 84.726 465.750 C 85.951 468.983, 101.737 492.478, 106.731 498.500 C 107.187 499.050, 108.897 501.291, 110.530 503.480 C 115.302 509.875, 123.067 519.365, 133.500 531.552 C 144.293 544.159, 168.175 568.632, 189.789 589.233 C 195.405 594.586, 200 599.498, 200 600.149 C 200 600.801, 200.290 601.044, 200.644 600.689 C 201.340 599.993, 204.498 602.582, 215.750 613.075 C 219.737 616.793, 223 620.274, 223 620.809 C 223 621.345, 224.013 622.055, 225.250 622.388 C 226.488 622.720, 230.200 625.503, 233.500 628.573 C 236.800 631.643, 241.446 635.807, 243.825 637.827 C 246.204 639.847, 250.029 643.175, 252.325 645.223 C 254.621 647.271, 256.837 648.959, 257.250 648.973 C 257.663 648.988, 258 649.927, 258 651.059 C 258 652.204, 258.453 652.838, 259.020 652.488 C 260.288 651.704, 275 663.940, 275 665.779 C 275 666.515, 275.379 666.884, 275.842 666.598 C 276.305 666.311, 279.568 668.529, 283.092 671.525 C 286.616 674.521, 289.837 676.979, 290.250 676.986 C 290.663 676.994, 291 677.927, 291 679.059 C 291 680.205, 291.453 680.838, 292.020 680.487 C 293.079 679.833, 296.363 682.282, 303.918 689.360 C 306.348 691.637, 309.328 694.175, 310.540 695 C 311.752 695.825, 314.999 698.525, 317.756 701 C 320.513 703.475, 324.112 706.625, 325.754 708 C 327.396 709.375, 331.697 712.975, 335.312 716 C 338.927 719.025, 341.911 722.307, 341.942 723.294 C 341.974 724.282, 342.625 724.956, 343.391 724.794 C 344.156 724.632, 348.769 728.091, 353.641 732.480 C 358.514 736.869, 364.046 741.819, 365.935 743.480 C 386.891 761.906, 436 811.743, 436 814.584 C 436 815.363, 436.563 816.003, 437.250 816.007 C 437.938 816.011, 440.525 818.531, 443 821.607 C 445.475 824.683, 449.131 829.068, 451.125 831.350 C 460.334 841.893, 481 870.902, 481 873.286 C 481 874.111, 481.675 875.045, 482.500 875.362 C 483.325 875.678, 484 876.478, 484 877.140 C 484 877.801, 484.630 879.053, 485.400 879.921 C 487.419 882.198, 497.092 901.289, 500.386 909.500 C 501.931 913.350, 503.659 917.480, 504.228 918.678 C 504.796 919.876, 505.039 922.013, 504.769 923.428 C 504.338 925.681, 504.615 926, 507 926 C 509.320 926, 509.656 925.652, 509.272 923.645 C 508.342 918.778, 519.472 893.427, 528.872 879 C 530.844 875.975, 533.017 872.375, 533.703 871 C 534.389 869.625, 537.028 865.575, 539.568 862 C 542.107 858.425, 546.254 852.575, 548.782 849 C 551.311 845.425, 553.689 842.275, 554.069 842 C 554.448 841.725, 556.460 839.250, 558.541 836.500 C 560.622 833.750, 563.138 830.600, 564.131 829.500 C 565.125 828.400, 568.032 824.913, 570.591 821.750 C 573.151 818.588, 575.891 816, 576.681 816 C 577.472 816, 577.851 815.568, 577.524 815.039 C 576.237 812.956, 620.477 768.333, 655.072 736.823 C 667.452 725.546, 669.291 724.062, 670.188 724.616 C 670.634 724.892, 671 724.439, 671 723.609 C 671 722.779, 671.622 721.740, 672.382 721.300 C 673.143 720.860, 676.032 718.475, 678.803 716 C 681.574 713.525, 685.790 709.851, 688.171 707.837 C 690.552 705.822, 694.975 701.900, 698 699.123 C 701.025 696.345, 703.816 694.056, 704.203 694.036 C 704.590 694.016, 707.066 692.010, 709.706 689.579 C 717.878 682.051, 720.454 680.002, 721.750 680.001 C 722.438 680.001, 723 679.325, 723 678.500 C 723 677.675, 723.337 676.986, 723.750 676.969 C 724.163 676.952, 727.200 674.482, 730.500 671.480 C 733.800 668.478, 737.063 666.228, 737.750 666.480 C 738.438 666.731, 739 666.324, 739 665.574 C 739 663.871, 753.001 651.882, 754.155 652.596 C 754.620 652.883, 755 652.439, 755 651.609 C 755 650.779, 755.636 649.740, 756.414 649.300 C 757.192 648.860, 759.866 646.587, 762.356 644.250 C 764.845 641.913, 767.111 640, 767.390 640 C 767.669 640, 769.158 638.823, 770.698 637.385 C 781.659 627.152, 788.064 621.922, 788.958 622.474 C 789.531 622.828, 790 622.484, 790 621.708 C 790 620.405, 805.630 605.350, 810.405 602.054 C 813.998 599.573, 870.207 542.956, 878.051 533.916 C 882.148 529.194, 886.850 523.799, 888.500 521.927 C 890.150 520.055, 892.696 516.943, 894.158 515.012 C 895.621 513.080, 897.983 510.193, 899.408 508.594 C 900.834 506.996, 902.002 505.421, 902.005 505.094 C 902.007 504.768, 903.357 503.062, 905.005 501.304 C 906.652 499.547, 908 497.821, 908 497.470 C 908 497.119, 910.025 494.254, 912.500 491.103 C 914.975 487.953, 917 485.083, 917 484.726 C 917 484.368, 919.588 480.313, 922.750 475.713 C 930.033 465.120, 930.655 464.143, 932.439 460.500 C 933.247 458.850, 935.262 455.250, 936.917 452.500 C 938.572 449.750, 940.905 445.475, 942.101 443 C 943.298 440.525, 946.014 434.943, 948.138 430.596 C 950.262 426.249, 952 422.123, 952 421.427 C 952 420.731, 952.663 418.888, 953.473 417.331 C 955.448 413.533, 961 397.726, 961 395.900 C 961 395.100, 961.619 393.557, 962.375 392.473 C 963.132 391.388, 964.009 388.700, 964.325 386.500 C 965.176 380.562, 966.571 373.080, 967.773 368 C 970.147 357.964, 971.489 342.588, 971.395 326.500 C 971.298 310.045, 969.179 289.231, 967.023 283.561 C 966.460 282.081, 966 279.351, 966 277.494 C 966 275.637, 965.508 273.814, 964.906 273.442 C 964.304 273.070, 963.979 271.020, 964.183 268.883 C 964.395 266.654, 964.116 264.999, 963.526 264.998 C 962.962 264.997, 961.211 261.060, 959.636 256.248 C 954.905 241.796, 944.777 220.935, 936.852 209.320 C 935.283 207.021, 934 204.864, 934 204.526 C 934 204.189, 932.918 202.746, 931.596 201.320 C 930.274 199.894, 928.587 197.569, 927.846 196.153 C 927.106 194.737, 924.595 191.536, 922.267 189.039 C 919.939 186.543, 918.011 184.050, 917.982 183.500 C 917.859 181.122, 888.773 153.913, 879.498 147.500 C 877.908 146.400, 875.392 144.375, 873.908 143 C 872.424 141.625, 869.701 139.670, 867.855 138.656 C 859.690 134.168, 858.461 133.430, 857.197 132.250 C 856.460 131.563, 855.439 131, 854.929 131 C 854.418 131, 854 130.277, 854 129.393 C 854 128.412, 853.444 127.999, 852.573 128.334 C 851.019 128.930, 846.020 126.963, 846.008 125.750 C 846.004 125.338, 845.532 125, 844.959 125 C 842.430 125, 826.089 116.406, 826.484 115.284 C 826.782 114.436, 826.054 114.239, 824.077 114.635 C 822.480 114.954, 820.946 114.721, 820.562 114.101 C 820.188 113.495, 818.777 113, 817.427 113 C 816.077 113, 814.191 112.574, 813.236 112.053 C 812.281 111.533, 809.105 110.361, 806.179 109.449 C 803.252 108.538, 800.603 107.130, 800.293 106.322 C 799.909 105.322, 798.945 105.048, 797.279 105.466 C 794.109 106.262, 791 105.255, 791 103.433 C 791 101.748, 787.340 101.481, 786.792 103.125 C 786.249 104.752, 780 103.184, 780 101.421 C 780 99.789, 778.834 99.570, 777.450 100.942 C 776.856 101.531, 773.693 101.443, 769 100.706 C 759.111 99.154, 712.907 99.142, 702.500 100.689 C 697.508 101.432, 694.143 101.526, 693.550 100.939 C 692.116 99.522, 690.991 99.812, 691.615 101.439 C 692.012 102.473, 691.103 103.078, 688.383 103.588 C 685.853 104.062, 684.472 103.917, 684.216 103.149 C 683.656 101.469, 681 101.744, 681 103.481 C 681 105.286, 676.950 106.436, 673.947 105.483 C 672.541 105.037, 671.979 105.157, 672.387 105.817 C 673.005 106.817, 663.430 111, 660.522 111 C 659.750 111, 658.840 111.450, 658.500 112 C 658.160 112.550, 656.810 113, 655.500 113 C 654.190 113, 652.824 113.476, 652.464 114.059 C 652.086 114.669, 650.568 114.844, 648.876 114.473 C 646.813 114.020, 646.026 114.194, 646.221 115.059 C 646.542 116.475, 622.292 129.299, 620.909 128.444 C 620.409 128.135, 620 128.598, 620 129.472 C 620 130.347, 619.212 131.348, 618.250 131.697 C 617.288 132.047, 614.625 133.657, 612.333 135.276 C 610.041 136.895, 607.678 137.919, 607.083 137.551 C 606.487 137.183, 606 137.532, 606 138.326 C 606 139.120, 604.763 140.571, 603.250 141.550 C 601.737 142.529, 599.600 144.136, 598.500 145.121 C 591.809 151.114, 584.184 156.851, 583.638 156.305 C 583.287 155.954, 583 156.169, 583 156.784 C 583 158.257, 569.557 172, 568.116 172 C 567.502 172, 567 172.485, 567 173.078 C 567 173.671, 563.469 178.508, 559.153 183.828 C 554.837 189.148, 549.373 196.425, 547.010 200 C 544.647 203.575, 541.800 207.513, 540.683 208.750 C 539.565 209.988, 538.960 211, 539.338 211 C 539.716 211, 538.974 212.688, 537.689 214.750 C 536.405 216.813, 535.059 219.175, 534.698 220 C 534.337 220.825, 532.911 223.300, 531.528 225.500 C 530.145 227.700, 528.745 230.175, 528.416 231 C 526.945 234.693, 526.104 236.734, 524.706 240 C 523.157 243.619, 519.367 252.991, 518.033 256.500 C 515.183 263.999, 511.613 277.986, 510.451 286.205 C 508.916 297.071, 504.561 296.035, 502.918 284.412 C 501.997 277.894, 499.868 269.347, 497.885 264.203 C 497.398 262.940, 497 261.064, 497 260.034 C 497 259.004, 496.367 256.888, 495.593 255.331 C 494.230 252.590, 492.661 248.911, 490.866 244.250 C 490.031 242.080, 488.854 239.139, 487.566 236 C 487.227 235.175, 484.711 230.450, 481.975 225.500 C 479.238 220.550, 476.212 214.925, 475.250 213 C 474.287 211.075, 473.275 209.275, 473 209 C 472.725 208.725, 469.601 204.225, 466.058 199 C 462.515 193.775, 459.293 189.274, 458.899 188.997 C 457.115 187.746, 447.011 174.367, 447.006 173.250 C 447.003 172.563, 446.425 172, 445.723 172 C 444.061 172, 431 158.841, 431 157.166 C 431 156.460, 430.634 156.108, 430.186 156.385 C 429.524 156.794, 415.798 146.400, 414 144.128 C 413.725 143.781, 412.262 142.859, 410.750 142.079 C 409.238 141.300, 408 139.852, 408 138.862 C 408 137.726, 407.481 137.262, 406.592 137.603 C 404.791 138.294, 394 131.178, 394 129.299 C 394 128.520, 393.539 128.167, 392.977 128.514 C 391.824 129.227, 386 126.924, 386 125.756 C 386 125.340, 385.127 125, 384.059 125 C 382.991 125, 381.875 124.607, 381.578 124.127 C 381.057 123.283, 372.321 118.879, 368.750 117.660 C 367.788 117.332, 367 116.385, 367 115.556 C 367 114.416, 366.271 114.196, 364 114.650 C 361.711 115.108, 361 114.887, 361 113.719 C 361 112.773, 360.331 112.342, 359.250 112.592 C 356.951 113.124, 341.436 107.451, 341.717 106.181 C 341.846 105.597, 340.302 105.418, 337.910 105.739 C 334.406 106.209, 333.813 106.002, 333.326 104.139 C 332.716 101.806, 331.029 101.371, 329.299 103.101 C 327.746 104.654, 322 103.234, 322 101.298 C 322 100.183, 321.653 100.040, 320.750 100.781 C 319.900 101.479, 317.259 101.485, 312.500 100.802 C 304.681 99.680, 253.786 98.547, 252.859 99.475" stroke="none" fill="#fc0404" fill-rule="evenodd"/></svg>